<svg width="58" height="30" viewBox="0 0 58 30" fill="none" xmlns="http://www.w3.org/2000/svg">
<g filter="url(#filter0_d_2120_114)">
<path d="M45 1.5C45 7.46737 43 13.5 40 17.4099C36 21.5 36 24 24.5222 24C13.0444 24 13 22.1151 8.61232 17.4099C4.22463 12.7047 4 7.96737 4 2H8C8 10.5 11.4388 14.5834 11.4388 14.5834C11.4388 14.5834 14.5222 20.0027 24.5222 20.0027C34.5222 20.0027 37 14.5834 37 14.5834C37 14.5834 40.4321 8.5 40.4321 1.5H45Z" fill="#2F2105"/>
</g>
<g filter="url(#filter1_d_2120_114)">
<path d="M40.4596 9.52731C40.8656 10.8568 41.6895 12.02 42.8091 12.8441C43.9286 13.6682 45.2841 14.1094 46.6742 14.102C48.0643 14.0946 49.415 13.6391 50.5258 12.8032C51.6365 11.9673 52.4481 10.7954 52.84 9.46165C53.2319 8.12787 53.1832 6.70327 52.7012 5.39935C52.2192 4.09543 51.3296 2.9817 50.1643 2.22351C48.9991 1.46533 47.6205 1.10311 46.2331 1.19062C44.8457 1.27814 43.5235 1.81073 42.4628 2.70933L44.6146 5.24924C45.1289 4.81353 45.77 4.5553 46.4427 4.51286C47.1154 4.47043 47.7838 4.64606 48.3488 5.01368C48.9138 5.3813 49.3452 5.92131 49.5789 6.55355C49.8126 7.18578 49.8362 7.87652 49.6462 8.52323C49.4561 9.16994 49.0626 9.73814 48.5241 10.1434C47.9855 10.5488 47.3306 10.7696 46.6566 10.7732C45.9825 10.7768 45.3253 10.5629 44.7825 10.1633C44.2396 9.76371 43.8401 9.19973 43.6433 8.55507L40.4596 9.52731Z" fill="#2F2105"/>
</g>
<g filter="url(#filter2_d_2120_114)">
<path d="M38 1.59495C38 5.94584 36.525 10.1185 33.8995 13.1951C31.274 16.2716 27.713 18 24 18C20.287 18 16.726 16.2716 14.1005 13.1951C11.475 10.1185 10 5.94584 10 1.59495C10 1.59495 18 5.18358 24 1.59495C30 -1.99369 38 1.59495 38 1.59495Z" fill="#FF912B"/>
</g>
<g filter="url(#filter3_d_2120_114)">
<path d="M42.7553 27H6.24468C5.55726 27 5 27.6716 5 28.5C5 29.3284 5.55726 30 6.24468 30H42.7553C43.4427 30 44 29.3284 44 28.5C44 27.6716 43.4427 27 42.7553 27Z" fill="#2F2105"/>
</g>
<defs>
<filter id="filter0_d_2120_114" x="0" y="1.5" width="49" height="30.5" filterUnits="userSpaceOnUse" color-interpolation-filters="sRGB">
<feFlood flood-opacity="0" result="BackgroundImageFix"/>
<feColorMatrix in="SourceAlpha" type="matrix" values="0 0 0 0 0 0 0 0 0 0 0 0 0 0 0 0 0 0 127 0" result="hardAlpha"/>
<feOffset dy="4"/>
<feGaussianBlur stdDeviation="2"/>
<feComposite in2="hardAlpha" operator="out"/>
<feColorMatrix type="matrix" values="0 0 0 0 0 0 0 0 0 0 0 0 0 0 0 0 0 0 0.25 0"/>
<feBlend mode="normal" in2="BackgroundImageFix" result="effect1_dropShadow_2120_114"/>
<feBlend mode="normal" in="SourceGraphic" in2="effect1_dropShadow_2120_114" result="shape"/>
</filter>
<filter id="filter1_d_2120_114" x="36.4596" y="1.1778" width="20.6425" height="20.9243" filterUnits="userSpaceOnUse" color-interpolation-filters="sRGB">
<feFlood flood-opacity="0" result="BackgroundImageFix"/>
<feColorMatrix in="SourceAlpha" type="matrix" values="0 0 0 0 0 0 0 0 0 0 0 0 0 0 0 0 0 0 127 0" result="hardAlpha"/>
<feOffset dy="4"/>
<feGaussianBlur stdDeviation="2"/>
<feComposite in2="hardAlpha" operator="out"/>
<feColorMatrix type="matrix" values="0 0 0 0 0 0 0 0 0 0 0 0 0 0 0 0 0 0 0.25 0"/>
<feBlend mode="normal" in2="BackgroundImageFix" result="effect1_dropShadow_2120_114"/>
<feBlend mode="normal" in="SourceGraphic" in2="effect1_dropShadow_2120_114" result="shape"/>
</filter>
<filter id="filter2_d_2120_114" x="6" y="0" width="36" height="26" filterUnits="userSpaceOnUse" color-interpolation-filters="sRGB">
<feFlood flood-opacity="0" result="BackgroundImageFix"/>
<feColorMatrix in="SourceAlpha" type="matrix" values="0 0 0 0 0 0 0 0 0 0 0 0 0 0 0 0 0 0 127 0" result="hardAlpha"/>
<feOffset dy="4"/>
<feGaussianBlur stdDeviation="2"/>
<feComposite in2="hardAlpha" operator="out"/>
<feColorMatrix type="matrix" values="0 0 0 0 0 0 0 0 0 0 0 0 0 0 0 0 0 0 0.25 0"/>
<feBlend mode="normal" in2="BackgroundImageFix" result="effect1_dropShadow_2120_114"/>
<feBlend mode="normal" in="SourceGraphic" in2="effect1_dropShadow_2120_114" result="shape"/>
</filter>
<filter id="filter3_d_2120_114" x="1" y="27" width="47" height="11" filterUnits="userSpaceOnUse" color-interpolation-filters="sRGB">
<feFlood flood-opacity="0" result="BackgroundImageFix"/>
<feColorMatrix in="SourceAlpha" type="matrix" values="0 0 0 0 0 0 0 0 0 0 0 0 0 0 0 0 0 0 127 0" result="hardAlpha"/>
<feOffset dy="4"/>
<feGaussianBlur stdDeviation="2"/>
<feComposite in2="hardAlpha" operator="out"/>
<feColorMatrix type="matrix" values="0 0 0 0 0 0 0 0 0 0 0 0 0 0 0 0 0 0 0.25 0"/>
<feBlend mode="normal" in2="BackgroundImageFix" result="effect1_dropShadow_2120_114"/>
<feBlend mode="normal" in="SourceGraphic" in2="effect1_dropShadow_2120_114" result="shape"/>
</filter>
</defs>
</svg>
